<svg xmlns="http://www.w3.org/2000/svg" viewBox="0 0 256 256" width="256" height="256">
  <!-- The Philomatic mark: Phosphor 'Path' (regular) in the product accent — the same glyph the
       workbench and the ask page's brand line use. Source of truth for icons/icon-*.png. -->
  <path d="M200,168a32.06,32.06,0,0,0-31,24H72a32,32,0,0,1,0-64h96a40,40,0,0,0,0-80H72a8,8,0,0,0,0,16h96a24,24,0,0,1,0,48H72a48,48,0,0,0,0,96h97a32,32,0,1,0,31-40Zm0,48a16,16,0,1,1,16-16A16,16,0,0,1,200,216Z" fill="#9184d9"/>
</svg>
